<svg width="60" height="60" viewBox="0 0 60 60" fill="none" xmlns="http://www.w3.org/2000/svg">
<path fill-rule="evenodd" clip-rule="evenodd" d="M30.0002 10C24.6959 10 19.6088 12.1071 15.8581 15.8579C12.1074 19.6086 10.0002 24.6957 10.0002 30C10.0002 35.3043 12.1074 40.3914 15.8581 44.1421C19.6088 47.8929 24.6959 50 30.0002 50C35.3046 50 40.3917 47.8929 44.1424 44.1421C47.8931 40.3914 50.0002 35.3043 50.0002 30C50.0002 24.6957 47.8931 19.6086 44.1424 15.8579C40.3917 12.1071 35.3046 10 30.0002 10ZM5.00024 30C5.00024 16.1925 16.1927 5 30.0002 5C43.8077 5 55.0002 16.1925 55.0002 30C55.0002 43.8075 43.8077 55 30.0002 55C16.1927 55 5.00024 43.8075 5.00024 30Z" fill="white"/>
<path fill-rule="evenodd" clip-rule="evenodd" d="M29.9999 10C24.8436 9.98966 19.8844 11.9812 16.1674 15.555C15.9304 15.7822 15.6509 15.9605 15.345 16.0797C15.0391 16.1989 14.7127 16.2566 14.3844 16.2497C14.0562 16.2427 13.7325 16.1711 13.4319 16.0391C13.1313 15.907 12.8596 15.7171 12.6324 15.48C12.4053 15.243 12.227 14.9635 12.1078 14.6576C11.9886 14.3517 11.9309 14.0253 11.9378 13.697C11.9448 13.3687 12.0163 13.0451 12.1484 12.7445C12.2804 12.4439 12.4704 12.1722 12.7074 11.945C17.3554 7.47906 23.5541 4.98953 29.9999 5.00003C30.663 5.00003 31.2989 5.26343 31.7677 5.73227C32.2365 6.20111 32.4999 6.83699 32.4999 7.50003C32.4999 8.16307 32.2365 8.79896 31.7677 9.2678C31.2989 9.73664 30.663 10 29.9999 10Z" fill="#2AE881"/>
</svg>
